<svg id="spread" enable-background="new 0 0 300 300" height="512" viewBox="0 0 300 300" width="512" xmlns="http://www.w3.org/2000/svg"><g><circle cx="150" cy="138" fill="#efefd2" r="86"/><g><path d="m84 76h-18c-9.941 0-18-8.059-18-18v-8c0-9.941 8.059-18 18-18 9.941 0 18 8.059 18 18z" fill="#e7d1c4"/><path d="m84 80h-18c-12.131 0-22-9.869-22-22v-8c0-12.131 9.869-22 22-22s22 9.869 22 22v26c0 2.209-1.791 4-4 4zm-18-44c-7.719 0-14 6.281-14 14v8c0 7.719 6.281 14 14 14h14v-22c0-7.719-6.281-14-14-14z" fill="#4c241d"/></g><g><path d="m84 130.039v-24.039c0-9.941-8.059-18-18-18s-18 8.059-18 18v48c0 9.256 7.013 16.792 16 17.798l-8 80.202v4 12h32c0-7.447-9.111-13.65-16-15.434l12-92.566z" fill="#9dc1e4"/><path d="m88 272h-32c-2.209 0-4-1.791-4-4v-16l7.664-77.018c-9.156-2.734-15.664-11.16-15.664-20.982v-48c0-12.131 9.869-22 22-22s22 9.869 22 22v54c0 .172-.012.344-.033.514l-11.578 89.311c7.338 2.97 15.611 9.611 15.611 18.175 0 2.209-1.791 4-4 4zm-28-8h22.541c-2.342-3.367-7.131-6.42-11.543-7.561-1.953-.506-3.225-2.387-2.965-4.387l11.967-92.31v-53.742c0-7.719-6.281-14-14-14s-14 6.281-14 14v48c0 7.086 5.35 13.027 12.445 13.824 2.178.244 3.752 2.193 3.535 4.371l-8 80.201zm24-104h.039z" fill="#4c241d"/></g><g><path d="m212.002 76h18c9.941 0 18-8.059 18-18v-8c0-9.941-8.059-18-18-18-9.941 0-18 8.059-18 18z" fill="#f4aeab"/><path d="m230.002 80h-18c-2.209 0-4-1.791-4-4v-26c0-12.131 9.869-22 22-22s22 9.869 22 22v8c0 12.131-9.869 22-22 22zm-14-8h14c7.719 0 14-6.281 14-14v-8c0-7.719-6.281-14-14-14s-14 6.281-14 14z" fill="#4c241d"/></g><g><path d="m212.002 130.039v-24.039c0-9.941 8.059-18 18-18s18 8.059 18 18v48c0 9.256-7.013 16.792-16 17.798l8 80.202v4 12h-32c0-7.447 9.111-13.65 16-15.434l-12-92.566z" fill="#5c128d"/><path d="m240.002 272h-32c-2.209 0-4-1.791-4-4 0-8.564 8.273-15.205 15.611-18.176l-11.578-89.311c-.021-.17-.033-.342-.033-.514v-54c0-12.131 9.869-22 22-22s22 9.869 22 22v48c0 9.82-6.508 18.248-15.662 20.982l7.643 76.621.02 16.396c-.001 2.211-1.792 4.002-4.001 4.002zm-26.541-8h22.541v-12l-7.98-79.805c-.217-2.178 1.357-4.127 3.535-4.371 7.096-.797 12.445-6.738 12.445-13.824v-48c0-7.719-6.281-14-14-14s-14 6.281-14 14v53.742l11.967 92.311c.26 2-1.012 3.881-2.965 4.387-4.412 1.14-9.201 4.193-11.543 7.56z" fill="#4c241d"/></g><g><path d="m264 224h-60l8-64 36-8z" fill="#bd53b5"/><path d="m264 228h-60c-1.146 0-2.24-.492-2.998-1.354-.76-.859-1.113-2.004-.971-3.143l8-64c.209-1.678 1.451-3.041 3.102-3.408l36-8c2.152-.479 4.291.879 4.771 3.037l16 72c.264 1.184-.025 2.424-.783 3.369-.76.948-1.908 1.499-3.121 1.499zm-55.469-8h50.482l-14.051-63.227-29.344 6.52z" fill="#4c241d"/></g><g><path d="m256 184.004c-3.297 0-6.383-2.055-7.543-5.34l-24-68c-1.473-4.168.715-8.738 4.879-10.207 4.18-1.477 8.734.715 10.207 4.879l24 68c1.473 4.168-.715 8.738-4.879 10.207-.883.312-1.781.461-2.664.461z" fill="#f4aeab"/><path d="m256 188.004c-5.076 0-9.623-3.219-11.314-8.008l-24-68c-1.068-3.023-.895-6.281.488-9.174s3.809-5.072 6.832-6.137c6.225-2.201 13.104 1.078 15.309 7.316l24 68.002c1.068 3.023.895 6.281-.488 9.174s-3.809 5.072-6.832 6.137c-1.29.457-2.636.69-3.995.69zm-24.004-84.004c-.441 0-.889.074-1.328.229-1.008.355-1.816 1.082-2.277 2.045-.461.965-.518 2.051-.162 3.059l24 68c.715 2.021 3.018 3.182 5.102 2.439 1.01-.355 1.818-1.082 2.279-2.045.461-.965.518-2.051.162-3.059l-24-68c-.581-1.641-2.127-2.668-3.776-2.668z" fill="#4c241d"/></g><g><path d="m44 188.004c3.297 0 6.383-2.055 7.543-5.34l24-68c1.473-4.168-.715-8.738-4.879-10.207-4.18-1.477-8.734.715-10.207 4.879l-24 68c-1.473 4.168.715 8.738 4.879 10.207.883.312 1.781.461 2.664.461z" fill="#e7d1c4"/><path d="m44 192.004c-1.359 0-2.705-.232-3.998-.689-3.02-1.064-5.445-3.244-6.828-6.137s-1.557-6.15-.488-9.174l24-68c2.205-6.24 9.078-9.516 15.311-7.318 3.021 1.064 5.447 3.244 6.83 6.137s1.557 6.15.488 9.174l-24 68c-1.692 4.788-6.239 8.007-11.315 8.007zm24.004-84.004c-1.648 0-3.195 1.029-3.775 2.67l-24 67.998c-.355 1.008-.299 2.094.162 3.059.461.963 1.27 1.689 2.275 2.045 2.102.74 4.391-.418 5.105-2.439l24-68c.355-1.008.299-2.094-.162-3.059-.461-.963-1.27-1.689-2.275-2.045-.439-.155-.889-.229-1.33-.229z" fill="#4c241d"/></g><path d="m184 64h-12c-2.209 0-4-1.791-4-4s1.791-4 4-4h12c2.209 0 4 1.791 4 4s-1.791 4-4 4zm-28 0h-12c-2.209 0-4-1.791-4-4s1.791-4 4-4h12c2.209 0 4 1.791 4 4s-1.791 4-4 4zm-28 0h-12c-2.209 0-4-1.791-4-4s1.791-4 4-4h12c2.209 0 4 1.791 4 4s-1.791 4-4 4z" fill="#4c241d"/><path d="m127.994 84c-1.986 0-3.711-1.48-3.963-3.504-.275-2.191 1.279-4.191 3.473-4.465l8.432-1.055c2.166-.275 4.191 1.279 4.465 3.473.275 2.191-1.279 4.191-3.473 4.465l-8.432 1.055c-.168.021-.336.031-.502.031zm24.309-3.039c-1.986 0-3.711-1.48-3.963-3.504-.273-2.191 1.281-4.191 3.473-4.465l11.908-1.488c2.16-.297 4.191 1.279 4.465 3.473.273 2.191-1.281 4.191-3.473 4.465l-11.908 1.488c-.168.021-.336.031-.502.031zm27.783-3.473c-1.986 0-3.711-1.48-3.963-3.504-.273-2.191 1.281-4.191 3.473-4.465l11.908-1.488c2.18-.295 4.191 1.279 4.465 3.473.273 2.191-1.281 4.191-3.473 4.465l-11.908 1.488c-.168.022-.336.031-.502.031z" fill="#4c241d"/><path d="m192.006 52c-.166 0-.334-.01-.502-.031l-11.908-1.488c-2.191-.273-3.746-2.273-3.473-4.465.271-2.193 2.266-3.752 4.465-3.473l11.908 1.488c2.191.273 3.746 2.273 3.473 4.465-.252 2.024-1.977 3.504-3.963 3.504zm-27.783-3.473c-.166 0-.334-.01-.502-.031l-11.908-1.488c-2.191-.273-3.746-2.273-3.473-4.465.273-2.193 2.271-3.748 4.465-3.473l11.908 1.488c2.191.273 3.746 2.273 3.473 4.465-.252 2.024-1.977 3.504-3.963 3.504zm-27.785-3.472c-.166 0-.334-.01-.502-.031l-8.432-1.055c-2.193-.273-3.748-2.273-3.473-4.465.273-2.193 2.271-3.748 4.465-3.473l8.432 1.055c2.193.273 3.748 2.273 3.473 4.465-.253 2.023-1.977 3.504-3.963 3.504z" fill="#4c241d"/><g><path d="m184 130c0-14.359-14.327-26-32-26s-32 11.641-32 26c0 8.207 4.691 15.513 12 20.278v21.722h40v-21.722c7.309-4.765 12-12.071 12-20.278z" fill="#fff"/><path d="m172 176h-40c-2.209 0-4-1.791-4-4v-19.635c-7.654-5.688-12-13.734-12-22.365 0-16.543 16.15-30 36-30s36 13.457 36 30c0 8.631-4.346 16.678-12 22.365v19.635c0 2.209-1.791 4-4 4zm-36-8h32v-17.721c0-1.352.684-2.611 1.814-3.352 6.473-4.218 10.186-10.39 10.186-16.927 0-12.131-12.561-22-28-22s-28 9.869-28 22c0 6.537 3.713 12.709 10.186 16.928 1.131.74 1.814 2 1.814 3.352z" fill="#4c241d"/></g><g fill="#4c241d"><path d="m140 160h8v12h-8z"/><path d="m156 160h8v12h-8z"/><circle cx="164" cy="132" r="8"/><circle cx="140" cy="132" r="8"/></g></g></svg>